<?xml version="1.0" encoding="UTF-8" standalone="no"?>
<!-- Created with Inkscape (http://www.inkscape.org/) -->

<svg
   xmlns:dc="http://purl.org/dc/elements/1.1/"
   xmlns:cc="http://creativecommons.org/ns#"
   xmlns:rdf="http://www.w3.org/1999/02/22-rdf-syntax-ns#"
   xmlns:svg="http://www.w3.org/2000/svg"
   xmlns="http://www.w3.org/2000/svg"
   xmlns:sodipodi="http://sodipodi.sourceforge.net/DTD/sodipodi-0.dtd"
   xmlns:inkscape="http://www.inkscape.org/namespaces/inkscape"
   width="47.625mm"
   height="47.625mm"
   viewBox="0 0 168.75 168.75"
   id="svg2"
   version="1.1"
   inkscape:version="0.91 r13725"
   sodipodi:docname="drawing.svg">
  <defs
     id="defs4" />
  <sodipodi:namedview
     id="base"
     pagecolor="#ffffff"
     bordercolor="#666666"
     borderopacity="1.0"
     inkscape:pageopacity="0.0"
     inkscape:pageshadow="2"
     inkscape:zoom="4.9715502"
     inkscape:cx="82.236439"
     inkscape:cy="76.55038"
     inkscape:document-units="px"
     inkscape:current-layer="layer1"
     showgrid="false"
     fit-margin-top="0"
     fit-margin-left="0"
     fit-margin-right="0"
     fit-margin-bottom="0"
     inkscape:window-width="1841"
     inkscape:window-height="1016"
     inkscape:window-x="79"
     inkscape:window-y="27"
     inkscape:window-maximized="1" />
  <metadata
     id="metadata7">
    <rdf:RDF>
      <cc:Work
         rdf:about="">
        <dc:format>image/svg+xml</dc:format>
        <dc:type
           rdf:resource="http://purl.org/dc/dcmitype/StillImage" />
        <dc:title />
      </cc:Work>
    </rdf:RDF>
  </metadata>
  <g
     inkscape:label="Layer 1"
     inkscape:groupmode="layer"
     id="layer1"
     transform="translate(-702.08929,-766.98718)">
    <g
       id="g4201"
       transform="translate(0.75,-1)">
      <path
         style="fill:none"
         d="m 701.33929,852.36218 0,-84.375 84.375,0 84.375,0 0,84.375 0,84.375 -84.375,0 -84.375,0 0,-84.375 z"
         id="path4205"
         inkscape:connector-curvature="0" />
      <path
         style="fill:#02944e"
         d="M 83.277344,11.535156 C 72.596417,11.547617 62.230901,14.181286 51.25,19.5625 39.65933,25.24254 26.163931,38.319402 20.244141,49.607422 c -4.9945,9.52364 -9.001557,24.719227 -8.972657,34.029297 0.11386,36.654951 27.587302,67.985951 63.701172,72.644531 42.214204,5.4455 81.349364,-29.16026 81.259764,-71.855469 C 156.16069,50.267971 131.62508,20.164299 98.125,13.130859 93.051781,12.065725 88.13231,11.529492 83.277344,11.535156 Z m 1.271484,13.546875 c 9.200474,0.126537 18.501332,2.473135 27.232422,7.140625 8.1273,4.34471 19.15138,15.368794 23.49609,23.496094 12.44664,23.28292 8.39375,50.62188 -10.27148,69.28711 -7.9187,7.9187 -16.43577,12.84633 -26.923829,15.57812 -19.92652,5.1902 -40.61748,-0.60772 -55.58789,-15.57812 -23.29395,-23.29395 -23.29395,-59.217769 0,-82.511719 11.665768,-11.665763 26.720564,-17.623004 42.054687,-17.41211 z"
         transform="translate(701.33929,767.98718)"
         id="path4217"
         inkscape:connector-curvature="0" />
      <path
         style="fill:#86c450;fill-opacity:1"
         d="m 769.52868,890.33574 c -3.14914,-3.74254 -3.38072,-3.81287 -5.68575,-1.72685 -3.5076,3.17433 -8.35892,1.54084 -10.83313,-3.64763 -3.92338,-8.22742 1.54915,-16.05326 16.1702,-23.12376 7.20702,-3.4852 8.65727,-4.26065 9.38472,-1.64156 2.29808,8.27396 7.16399,28.19387 2.98864,31.97251 -3.6311,3.28611 -8.31865,2.57165 -12.02468,-1.83271 z"
         id="path4213"
         inkscape:connector-curvature="0"
         sodipodi:nodetypes="sssssss" />
      <path
         style="fill:#86c450;fill-opacity:1"
         d="m 806.82499,884.35621 c -4.7213,-2.87896 -8.33047,-7.66777 -12.55773,-17.07318 -4.18857,-9.31933 -5.14103,-7.1685 8.1412,-11.80152 19.29658,-6.73091 32.18261,1.20273 21.21224,12.1062 -4.83089,4.80143 -3.67621,4.00642 -1.76233,6.53243 2.42612,3.20208 2.0223,7.64496 -3.03694,10.72986 -4.93336,3.00815 -7.1153,2.48264 -11.99644,-0.49375 z"
         id="path4211"
         inkscape:connector-curvature="0"
         sodipodi:nodetypes="cssssscc" />
      <path
         style="fill:#86c450;fill-opacity:1"
         d="m 748.83929,850.92938 c -3.44865,-1.41334 -5.0625,-4.55576 -5.0625,-7.01093 0,-1.3372 0.6657,-4.28447 2.93072,-6.54949 3.95977,-3.95977 3.63001,-3.93854 1.99083,-6.74544 -3.07867,-5.27187 2.28932,-9.84217 9.85049,-9.8256 3.37461,0.007 11.13948,4.51549 15.74257,13.27519 2.50134,4.76006 3.62339,7.78394 4.54789,9.88043 1.49374,3.38736 -24.23667,9.3378 -30,6.97584 z"
         id="path4209"
         inkscape:connector-curvature="0"
         sodipodi:nodetypes="ssssssss" />
      <path
         style="fill:#86c450;fill-opacity:1"
         d="m 789.91479,839.75883 c -1.39366,-3.15059 -2.84072,-9.785 -3.21571,-14.74313 -0.62825,-8.30697 -0.9087,-9.76971 2.4224,-12.62361 2.97992,-2.55303 3.21227,-2.61898 7.13283,-1.94011 2.36314,0.40919 4.80925,3.07377 5.97674,4.6419 3.33225,4.47575 2.14406,2.79586 4.0641,1.05824 5.14526,-4.65639 12.54414,0.69464 12.54414,9.07218 0,3.46938 -1.00232,5.35044 -4.73914,8.89392 -4.46008,4.22934 -17.28516,11.29784 -20.25246,11.36896 -0.76922,0.0184 -2.53924,-2.57776 -3.9329,-5.72835 z"
         id="path4203"
         inkscape:connector-curvature="0"
         sodipodi:nodetypes="ssssssssss" />
    </g>
  </g>
</svg>
